<svg xmlns="http://www.w3.org/2000/svg" fill="currentColor" viewBox="0 0 24 24"><path d="M5 20v-2h14v2zm0-3.5L3.725 8.475q-.05 0-.112.013T3.5 8.5q-.625 0-1.062-.438Q2 7.625 2 7t.438-1.062Q2.875 5.5 3.5 5.5t1.062.438T5 7q0 .175-.037.325t-.088.275L8 9l3.125-4.275q-.275-.2-.45-.525t-.175-.7q0-.625.438-1.062Q11.375 2 12 2t1.062.438q.438.437.438 1.062 0 .375-.175.7t-.45.525L16 9l3.125-1.4q-.05-.125-.088-.275T19 7q0-.625.438-1.062.437-.438 1.062-.438t1.062.438T22 7t-.438 1.062q-.437.438-1.062.438-.063 0-.125-.012t-.125-.013L19 16.5zm1.7-2h10.6l.65-4.175-2.625 1.15L12 6.9l-3.325 4.575-2.625-1.15zm5.3 0"/></svg>