<svg xmlns="http://www.w3.org/2000/svg" viewBox="0 0 24 24" fill="currentColor">
  <path d="M12 2C6.48 2 2 6.48 2 12s4.48 10 10 10 10-4.48 10-10S17.52 2 12 2zm0 18c-1.85 0-3.55-.63-4.9-1.69l2.11-2.11c.84.49 1.82.8 2.79.8 2.76 0 5-2.24 5-5 0-.97-.31-1.95-.8-2.79l2.11-2.11C19.37 8.45 20 10.15 20 12c0 4.41-3.59 8-8 8zM4 12c0-1.85.63-3.55 1.69-4.9l2.11 2.11c-.49.84-.8 1.82-.8 2.79 0 .97.31 1.95.8 2.79L5.69 16.9C4.63 15.55 4 13.85 4 12zm8-6c1.1 0 2 .9 2 2h-4c0-1.1.9-2 2-2zm0 12c-1.1 0-2-.9-2-2h4c0 1.1-.9 2-2 2zm6-6c0 1.1-.9 2-2 2v-4c1.1 0 2 .9 2 2zm-12 0c0-1.1.9-2 2-2v4c-1.1 0-2-.9-2-2z"/>
</svg>

